<svg width="188" height="188" viewBox="0 0 188 188" fill="none" xmlns="http://www.w3.org/2000/svg">
<g clip-path="url(#clip0_26_157)">
<rect width="188" height="188" rx="94" fill="#1F81C3"/>
<path d="M175.068 94.4307C175.068 53.3287 144.224 19.2243 104.195 13.614L95.1413 13V28.2336H96.4426C131.591 30.2027 159.588 59.1571 159.588 94.4126C159.588 130.959 129.534 160.695 92.5909 160.695C74.6185 160.695 58.2933 153.624 46.2607 142.161L35.3793 153.067C49.3286 166.444 67.9256 175.005 88.7944 175.962H98.3465L107.757 174.685L104.219 175.26C111.512 174.236 118.499 172.266 125.051 169.48C130.296 167.249 135.261 164.496 139.88 161.286C161.149 146.505 175.068 122.049 175.068 94.4307Z" fill="white"/>
<path d="M125.051 169.48L142.84 157.384L139.88 161.286C135.261 164.496 130.296 167.249 125.051 169.48Z" fill="white"/>
<path d="M92.5852 151.413C124.391 151.413 150.177 125.9 150.177 94.4307C150.177 62.968 124.391 37.4549 92.5852 37.4549C60.7921 37.4549 35 62.968 35 94.4307C35 125.9 60.786 151.413 92.5852 151.413ZM139.987 94.4307C139.987 98.1568 139.552 101.774 138.719 105.245C138.291 104.573 135.278 100.205 134.727 98.7748C134.17 97.345 127.073 107.069 126.411 107.627C125.732 108.184 125.86 95.5698 125.86 93.9158C125.86 92.2617 123.521 90.0443 122.198 88.9416C120.851 87.8328 113.136 80.5867 110.901 81.4228C108.427 82.3497 115.769 87.8328 115.224 88.3902C114.66 88.9476 108.88 90.4865 106.528 90.9228C104.159 91.3711 102.462 88.16 101.685 86.7241C100.901 85.2943 98.6842 80.205 98.2494 78.8781C97.8085 77.5452 96.2532 80.7927 96.4736 82.2225C96.694 83.6645 98.8128 87.8328 99.8048 89.3839C100.809 90.9288 101.25 92.801 101.25 94.249C101.25 95.6849 103.35 96.6785 105.555 97.3389C107.796 98.0054 105.555 99.4413 104.789 100.326C104.005 101.21 100.809 102.98 97.4656 104.634C94.1406 106.288 90.5951 111.934 89.3887 114.255C88.164 116.575 85.3901 120.774 83.0632 122.652C80.7363 124.53 69.0955 128.517 64.9989 127.511C60.9084 126.53 60.241 112.152 60.5716 109.408C60.9084 106.645 62.7883 102.21 62.5618 99.6776C62.3536 97.1329 63.4313 92.9282 63.9947 91.9346C64.5703 90.9349 67.2156 92.0376 68.4403 91.9285C69.6589 91.8134 67.2156 88.8143 66.5543 88.9234C65.8929 89.0325 64.3437 88.0207 63.4252 87.5663C62.5557 87.13 61.5698 84.4279 58.1345 83.6584C54.687 82.8829 54.2461 78.5873 53.7991 76.4849C53.3582 74.3765 56.1321 68.8874 56.6955 67.7847C57.2527 66.6759 64.2274 60.6475 64.2274 60.6475C64.2274 60.6475 67.9443 58.7572 69.0037 58.8178C72.1022 59.0056 75.1149 61.938 75.1149 61.938C75.1149 61.938 79.5483 64.6342 82.3957 69.1358C84.7778 72.8982 89.7929 73.5768 89.7929 73.5768C92.5791 73.3405 94.3855 71.226 94.5202 70.4566C95.0223 67.9301 93.0751 65.8095 90.3746 65.9428C89.8113 65.9731 89.5969 67.0516 88.7152 67.0516C87.8272 67.0516 88.0416 65.9428 87.7109 64.828C87.3802 63.7314 87.2945 62.4167 86.7618 61.0898C86.2106 59.763 85.7698 58.1332 84.6675 56.9215C83.5531 55.6976 82.0099 56.6185 80.5709 56.2914C79.1319 55.9521 76.9642 57.1032 75.415 56.9881C73.8535 56.873 73.0819 55.6673 73.1921 54.5586C73.3024 53.4498 77.105 52.0685 78.9788 51.8443C80.871 51.6262 82.5672 51.4202 83.1122 50.6447C83.6755 49.8692 86.3454 49.4511 87.2333 49.5602C88.1212 49.6753 89.5418 50.269 90.3991 51.3657C91.5564 52.8803 91.6177 55.2614 94.312 54.91C95.353 54.7767 98.1086 53.2317 96.0143 52.0079C94.8386 51.3172 93.2465 50.2448 94.3671 48.2515C94.5202 47.9728 94.8448 47.7668 95.304 47.6093C120.19 49.027 139.987 69.4811 139.987 94.4307ZM88.5131 122.761C89.3949 121.222 91.287 120.871 93.3812 120.441C95.5857 119.968 93.3812 125.197 92.2484 125.869C91.1523 126.524 87.6068 128.075 86.6148 127.681C85.6105 127.281 87.6068 124.306 88.5131 122.761Z" fill="white"/>
<path d="M38.5493 130.934L40.1398 133.128L26.2786 142.728L29.7762 147.553L27.5381 149.103L18.8997 137.188L21.1378 135.638L24.6881 140.535L38.5493 130.934Z" fill="white"/>
<path d="M26.0195 122.021C25.8954 121.698 25.7414 121.439 25.5013 121.172C25.2112 120.882 24.831 120.679 24.205 120.553C23.6244 120.437 23.0915 120.482 22.5276 120.661C21.7243 120.969 21.2202 121.304 20.9234 121.714C20.5876 122.165 20.455 122.501 20.4419 122.861C20.4202 123.306 20.4565 123.58 20.5576 123.844C20.7553 124.36 21.0063 124.692 21.22 124.819L26.2242 122.986C26.2523 122.88 26.2172 122.537 26.0195 122.021ZM32.1328 120.821L33.0339 123.172L21.1202 127.535L20.6234 127.28C20.0916 126.969 19.5649 126.491 19.0921 125.94C18.7939 125.557 18.5285 125.08 18.3308 124.564C18.0734 123.893 18.0008 123.058 18.1016 122.173C18.2289 121.429 18.5451 120.711 18.9785 120.156C19.6249 119.331 20.4959 118.698 21.4847 118.336C22.4012 118 23.4049 117.892 24.3996 118.047C25.0451 118.153 25.6763 118.4 25.9399 118.55L29.9819 115.319L30.9152 117.753L27.8584 120.254C27.7855 120.171 28.0647 120.684 28.2578 121.188C28.5107 121.847 28.6337 122.527 28.6767 122.101C28.0738 122.322 29.3474 121.842 32.1328 120.821Z" fill="white"/>
<path d="M19.1827 101.723L16.4679 103.119L19.4252 103.932L19.1827 101.723ZM25.8813 95.4299L26.177 98.1233L21.4204 100.572L21.8619 104.593L26.9651 106.007L27.2636 108.726L12.5823 104.675L12.3314 102.39L25.8813 95.4299Z" fill="white"/>
<path d="M26.1728 86.5642L11.4663 88.9627L11.906 86.4062L21.9991 84.6941L12.9808 79.8547L13.4314 77.2349L26.5226 84.2272L26.1728 86.5642Z" fill="white"/>
<path d="M32.3205 65.0671L28.8154 72.5719L16.0911 66.8947L19.5962 59.3899L21.7306 60.3422L19.3178 65.5083L22.4959 66.9263L24.9088 61.7602L27.0314 62.7073L24.6303 67.8786L27.7733 69.2809L30.1978 64.12L32.3205 65.0671Z" fill="white"/>
<path d="M41.54 51.4631L35.7164 58.6448L24.3562 49.8447L25.9496 47.8797L35.4114 55.2092L39.6415 49.9925L41.54 51.4631Z" fill="white"/>
<path d="M54.9741 39.1897L52.6998 40.8441L47.8375 34.4584L43.5381 37.5858L48.4108 43.9639L46.1364 45.6182L34.537 30.3845L36.8009 28.7378L41.9044 35.4402L46.2193 32.3332L41.0925 25.6002L43.3746 23.9561L54.9741 39.1897Z" fill="white"/>
<path d="M65.8006 33.5017L65.6806 33.5475C65.0398 33.778 64.2964 33.8552 63.623 33.7958C62.4104 33.6671 61.3021 33.1414 60.4656 32.2922C59.9494 31.7606 59.5364 31.176 59.3103 30.6438C59.2221 30.4576 58.1562 27.7858 55.9101 22.156L58.262 21.2596C60.5081 26.8894 61.5813 29.5446 61.6384 29.6878C61.7075 29.8263 61.7981 29.9842 61.9246 30.1971C62.2682 30.7119 62.6413 31.0232 63.1655 31.2631C63.7976 31.5306 64.3297 31.5477 64.9992 31.32C65.4912 31.1325 65.8326 30.81 66.1435 30.238C66.2954 29.9603 66.3728 29.7384 66.3976 29.4541C66.4663 28.9333 66.4125 28.4866 66.2676 28.0196C66.213 27.848 65.1376 25.1524 62.8581 19.4391L65.2221 18.5381L68.5484 26.8755C68.6912 27.2333 68.8145 27.681 68.8826 28.1635C69.0427 29.1193 68.9223 30.0996 68.5218 30.9668C67.9429 32.1493 66.9885 33.049 65.8006 33.5017Z" fill="white"/>
<path d="M80.9301 26.2908C81.3764 26.2376 81.6729 26.1247 81.9694 25.9083C82.2883 25.6634 82.4764 25.4082 82.6375 25.0398C82.7843 24.6602 82.829 24.2928 82.767 23.7958C82.7146 23.3753 82.5744 23.0816 82.302 22.7649C82.004 22.4512 81.7044 22.2283 81.349 22.0766C80.9379 21.8928 80.6351 21.8513 80.278 21.8939L78.9774 22.0489L79.4956 26.0997L79.4144 26.0706C79.9594 26.2901 80.3945 26.3546 80.9301 26.2908ZM79.179 19.516C79.485 19.4795 79.6429 19.396 79.8804 19.122C80.059 18.8938 80.1244 18.692 80.0767 18.3097C79.9575 17.354 79.6834 17.128 78.8291 17.2298C78.5374 17.2775 78.4162 17.3437 78.4035 17.3452L78.6673 19.564L78.5526 19.5777L79.179 19.516ZM80.9691 28.7821C80.5356 28.8338 80.0558 28.8263 79.6191 28.749C78.8254 28.6109 78.07 28.3646 77.1584 27.9042L75.7435 16.563C76.5584 15.5218 77.5707 14.9226 78.6545 14.7935C78.9478 14.7585 79.2602 14.773 79.5599 14.789C80.4237 14.8671 81.2078 15.2392 81.732 15.8105C82.1829 16.3128 82.4744 16.9894 82.5618 17.6902C82.5682 17.7412 82.584 17.9721 82.6174 18.3432C82.6635 18.8162 82.4512 19.501 82.3061 19.7899L81.9714 19.7005C82.2392 19.772 82.6089 19.9349 82.9675 20.112C83.3563 20.3243 83.7579 20.6386 84.0988 20.9859C84.4828 21.3669 84.8062 21.8845 85.0308 22.4397C85.1614 22.7603 85.2617 23.1493 85.311 23.5443C85.3475 23.8374 85.3649 24.1845 85.3441 24.5362C85.3216 25.082 85.1525 25.6971 84.8542 26.3146C84.5432 26.9336 84.0951 27.4914 83.5483 27.8799C82.8819 28.3473 81.9637 28.6636 80.9691 28.7821Z" fill="white"/>
</g>
<defs>
<clipPath id="clip0_26_157">
<rect width="188" height="188" rx="94" fill="white"/>
</clipPath>
</defs>
</svg>
