<svg width="489" height="114" viewBox="0 0 489 114" fill="none" xmlns="http://www.w3.org/2000/svg">
<g clip-path="url(#clip0_16_44)">
<path d="M81.7031 95.3438H71.8125V33.7969H50.0625V23.8594H103.781V33.7969H81.7031V95.3438ZM180.938 68.3906L176.906 57.9844L172.828 68.3906H180.938ZM201.234 95.2031H191.344L184.266 76.9688H169.5L162.422 94.9219H152.438L172.734 43.2656H181.125L201.234 95.2031ZM212.203 95.1562L194.859 43.7344H204.328L216.469 78.9844L228.562 43.5469H238.266L220.828 94.9688L212.203 95.1562ZM273.797 94.6406H243.562V43.7812H273.797V52.3125H252.984V65.0156H273.797V73.5L252.984 73.5469V86.1094L273.797 86.1562V94.6406ZM312.281 95.4844H278.531V43.0312H287.766V86.7188H312.281V95.4844ZM357.328 94.5938H347.062V65.2969H327.656L327.703 94.5938H317.438V24.7031H327.656V55.4531L347.062 55.5469V24.6562L357.328 24.7031V94.5938ZM380.719 95.3438H380.25C377.766 95.2969 375.141 94.5938 372.938 93.5156C369 91.5 365.953 88.2656 364.266 84.2812C363.234 81.7969 362.625 79.2656 362.578 77.1562C362.531 76.4062 362.531 65.9062 362.531 43.7812H371.719C371.719 65.9062 371.766 76.3594 371.766 76.9219C371.812 77.4844 371.906 78.1406 372.047 79.0312C372.516 81.2344 373.359 82.7812 374.812 84.2812C376.594 86.0156 378.375 86.7656 380.953 86.8594C382.875 86.8594 384.469 86.2031 386.297 84.6562C387.188 83.9062 387.75 83.25 388.219 82.3125C389.156 80.625 389.578 79.0312 389.719 77.25C389.766 76.5938 389.766 66 389.766 43.5469H399V76.3125C399 77.7188 398.812 79.4062 398.391 81.1406C397.641 84.6094 395.906 87.7969 393.375 90.2344C389.812 93.5156 385.359 95.3438 380.719 95.3438ZM418.078 85.9219C419.719 85.9219 420.844 85.6406 422.016 84.9844C423.281 84.2344 424.078 83.3906 424.828 82.125C425.531 80.8125 425.859 79.5 425.859 77.6719C425.859 76.125 425.484 75 424.641 73.7344C423.703 72.4688 422.719 71.5312 421.5 70.8281C420.094 69.9844 419.016 69.7031 417.703 69.7031H412.922L412.969 84.6094L412.688 84.4688C414.562 85.5 416.109 85.9219 418.078 85.9219ZM414.797 60.6094C415.922 60.6094 416.531 60.375 417.516 59.4844C418.266 58.7344 418.594 58.0312 418.594 56.625C418.594 53.1094 417.703 52.1719 414.562 52.1719C413.484 52.2188 413.016 52.4062 412.969 52.4062L412.922 60.5625H412.5L414.797 60.6094ZM417.094 94.9688C415.5 94.9688 413.766 94.7344 412.219 94.2656C409.406 93.4219 406.781 92.2031 403.688 90.1406V48.4219C407.109 45 411.047 43.2656 415.031 43.2656C416.109 43.2656 417.234 43.4531 418.312 43.6406C421.406 44.2969 424.078 45.9844 425.719 48.2812C427.125 50.2969 427.875 52.875 427.875 55.4531C427.875 55.6406 427.828 56.4844 427.781 57.8438C427.734 59.5781 426.656 61.9688 426 62.9531L424.828 62.4844C425.766 62.8594 427.031 63.6094 428.25 64.4062C429.562 65.3438 430.875 66.6562 431.953 68.0625C433.172 69.6094 434.109 71.625 434.672 73.7344C435 74.9531 435.188 76.4062 435.188 77.8594C435.188 78.9375 435.094 80.2031 434.859 81.4688C434.531 83.4375 433.641 85.5938 432.281 87.7031C430.875 89.8125 429 91.6406 426.844 92.8125C424.219 94.2188 420.75 94.9688 417.094 94.9688Z" fill="black"/>
<path d="M148 56.5833C148 40.6417 136.037 27.4141 120.511 25.2381L117 25C113.95 25 114.5 28 114.5 28C114.5 29.7516 115.74 30.9084 117.224 30.9084H117.505C131.137 31.6721 141.996 42.9023 141.996 56.5763C141.996 70.7508 130.339 82.2841 116.011 82.2841C109.04 82.2841 102.708 79.5418 98.0414 75.0958C97.0534 74.1582 95.5072 74.0994 94.4551 74.9689C94.2912 75.1052 94.1273 75.2344 93.9635 75.3754C93.3792 75.8618 93.0277 76.5692 93.0016 77.3188C92.9755 78.0707 93.2723 78.8039 93.821 79.3256C99.2313 84.5141 106.444 87.8345 114.538 88.2058L112 87.7103V95H121.893V87.7103L120.521 87.9332C123.349 87.5362 126.059 86.7722 128.601 85.6916C130.635 84.8265 132.561 83.7585 134.352 82.5135C142.601 76.7808 148 67.2951 148 56.5833Z" fill="black"/>
<path d="M128.601 85.6916L133.76 95H143.5L135.5 81L134.352 82.5135C132.561 83.7585 130.635 84.8265 128.601 85.6916Z" fill="black"/>
<path d="M116.009 78.6841C128.344 78.6841 138.346 68.7887 138.346 56.5833C138.346 44.3804 128.344 34.485 116.009 34.485C103.677 34.485 93.6738 44.3804 93.6738 56.5833C93.6738 68.7887 103.675 78.6841 116.009 78.6841ZM134.394 56.5833C134.394 58.0285 134.225 59.4314 133.902 60.7779C133.736 60.5171 132.567 58.8228 132.353 58.2682C132.137 57.7136 129.385 61.4852 129.128 61.7014C128.865 61.9176 128.914 57.0251 128.914 56.3836C128.914 55.7421 128.007 54.882 127.494 54.4543C126.972 54.0243 123.979 51.2138 123.112 51.5381C122.153 51.8977 125 54.0243 124.789 54.2405C124.571 54.4567 122.328 55.0536 121.416 55.2227C120.497 55.3966 119.839 54.1512 119.538 53.5943C119.234 53.0397 118.374 51.0658 118.205 50.5512C118.034 50.0342 117.431 51.2937 117.517 51.8483C117.602 52.4076 118.424 54.0243 118.809 54.6259C119.198 55.2251 119.369 55.9512 119.369 56.5128C119.369 57.0698 120.184 57.4551 121.039 57.7113C121.908 57.9698 121.039 58.5267 120.742 58.8698C120.438 59.2129 119.198 59.899 117.901 60.5406C116.612 61.1821 115.237 63.3722 114.769 64.2722C114.294 65.1722 113.218 66.8007 112.315 67.5291C111.413 68.2576 106.898 69.8038 105.309 69.4137C103.723 69.0331 103.464 63.4568 103.592 62.3923C103.723 61.3207 104.452 59.6006 104.364 58.6183C104.283 57.6314 104.701 56.0006 104.92 55.6152C105.143 55.2275 106.169 55.6551 106.644 55.6128C107.116 55.5682 106.169 54.405 105.912 54.4473C105.656 54.4896 105.055 54.0972 104.699 53.9209C104.361 53.7517 103.979 52.7037 102.647 52.4052C101.31 52.1044 101.139 50.4384 100.965 49.623C100.794 48.8052 101.87 46.6762 102.089 46.2485C102.305 45.8185 105.01 43.4803 105.01 43.4803C105.01 43.4803 106.451 42.7472 106.862 42.7707C108.064 42.8435 109.233 43.9809 109.233 43.9809C109.233 43.9809 110.952 45.0266 112.057 46.7725C112.98 48.2318 114.926 48.495 114.926 48.495C116.006 48.4034 116.707 47.5833 116.759 47.2848C116.954 46.3049 116.199 45.4825 115.151 45.5342C114.933 45.5459 114.85 45.9642 114.508 45.9642C114.163 45.9642 114.246 45.5342 114.118 45.1018C113.99 44.6764 113.957 44.1665 113.75 43.6519C113.536 43.1373 113.365 42.5051 112.938 42.0352C112.505 41.5605 111.907 41.9177 111.349 41.7908C110.791 41.6592 109.95 42.1057 109.349 42.061C108.743 42.0164 108.444 41.5487 108.487 41.1187C108.53 40.6887 110.004 40.1529 110.731 40.066C111.465 39.9814 112.123 39.9015 112.334 39.6007C112.553 39.2999 113.588 39.1378 113.933 39.18C114.277 39.2247 114.828 39.455 115.161 39.8803C115.61 40.4678 115.633 41.3913 116.678 41.255C117.082 41.2033 118.151 40.6041 117.339 40.1294C116.883 39.8615 116.265 39.4456 116.7 38.6725C116.759 38.5644 116.885 38.4845 117.063 38.4234C126.715 38.9733 134.394 46.9065 134.394 56.5833ZM114.429 67.5714C114.771 66.9746 115.505 66.8383 116.317 66.6714C117.172 66.4881 116.317 68.5161 115.878 68.7769C115.453 69.0307 114.078 69.6323 113.693 69.4795C113.303 69.3244 114.078 68.1706 114.429 67.5714Z" fill="#1F81C3"/>
</g>
<defs>
<clipPath id="clip0_16_44">
<rect width="489" height="114" fill="white"/>
</clipPath>
</defs>
</svg>
